<svg width="36" height="37" viewBox="0 0 36 37" fill="none" xmlns="http://www.w3.org/2000/svg">
<rect y="0.5" width="36" height="36" rx="18" fill="#E3E3E3"/>
<path d="M22.9999 16.8333L19.6666 13.5M10.0833 26.4167L12.9036 26.1033C13.2481 26.065 13.4204 26.0459 13.5815 25.9937C13.7243 25.9475 13.8603 25.8821 13.9857 25.7995C14.127 25.7063 14.2495 25.5837 14.4947 25.3386L25.4999 14.3333C26.4204 13.4129 26.4204 11.9205 25.4999 11C24.5795 10.0795 23.0871 10.0795 22.1666 11L11.1614 22.0052C10.9162 22.2504 10.7936 22.373 10.7004 22.5143C10.6178 22.6396 10.5524 22.7756 10.5062 22.9185C10.454 23.0795 10.4349 23.2518 10.3966 23.5964L10.0833 26.4167Z" stroke="#525252" stroke-width="1.4" stroke-linecap="round" stroke-linejoin="round"/>
</svg>
