<svg width="21" height="20" viewBox="0 0 21 20" fill="none" xmlns="http://www.w3.org/2000/svg">
<path d="M7.54028 8.33333V6.66667C7.54028 4.36583 8.57278 2.5 10.8736 2.5C12.6186 2.5 13.6344 3.57333 14.0236 5.095M10.8736 13.125V12.7083M14.2069 13.125V12.7083M7.54028 13.125V12.7083M3.79028 14.8333V11C3.79028 10.0667 3.79028 9.6 3.97195 9.24417C4.13159 8.93027 4.38657 8.675 4.70028 8.515C5.05695 8.33417 5.52362 8.33417 6.45695 8.33417H15.2903C16.2236 8.33417 16.6903 8.33417 17.047 8.515C17.3605 8.67479 17.6155 8.92974 17.7753 9.24333C17.9569 9.6 17.9569 10.0667 17.9569 11V14.8333C17.9569 15.7667 17.9569 16.2333 17.7753 16.59C17.6155 16.9036 17.3605 17.1585 17.047 17.3183C16.6903 17.5 16.2236 17.5 15.2903 17.5H6.45695C5.52362 17.5 5.05695 17.5 4.70028 17.3183C4.38669 17.1585 4.13174 16.9036 3.97195 16.59C3.79028 16.2342 3.79028 15.7675 3.79028 14.8333Z" stroke="#434343" stroke-width="1.25" stroke-linecap="round" stroke-linejoin="round"/>
</svg>
