<svg width="36" height="37" viewBox="0 0 36 37" fill="none" xmlns="http://www.w3.org/2000/svg">
<rect y="0.5" width="36" height="36" rx="18" fill="#E3E3E3"/>
<g clip-path="url(#clip0_76_1903)">
<path d="M27.3375 18.2875C26.6024 16.386 25.3262 14.7416 23.6667 13.5576C22.0072 12.3735 20.0372 11.7016 18 11.625C15.9628 11.7016 13.9927 12.3735 12.3332 13.5576C10.6737 14.7416 9.39758 16.386 8.66248 18.2875C8.61283 18.4248 8.61283 18.5752 8.66248 18.7125C9.39758 20.614 10.6737 22.2584 12.3332 23.4424C13.9927 24.6265 15.9628 25.2984 18 25.375C20.0372 25.2984 22.0072 24.6265 23.6667 23.4424C25.3262 22.2584 26.6024 20.614 27.3375 18.7125C27.3871 18.5752 27.3871 18.4248 27.3375 18.2875ZM18 24.125C14.6875 24.125 11.1875 21.6687 9.91873 18.5C11.1875 15.3312 14.6875 12.875 18 12.875C21.3125 12.875 24.8125 15.3312 26.0812 18.5C24.8125 21.6687 21.3125 24.125 18 24.125Z" fill="#525252"/>
<path d="M18 14.75C17.2583 14.75 16.5333 14.9699 15.9166 15.382C15.2999 15.794 14.8193 16.3797 14.5355 17.0649C14.2516 17.7502 14.1774 18.5042 14.3221 19.2316C14.4668 19.959 14.8239 20.6272 15.3484 21.1517C15.8728 21.6761 16.541 22.0333 17.2684 22.1779C17.9958 22.3226 18.7498 22.2484 19.4351 21.9645C20.1203 21.6807 20.706 21.2001 21.118 20.5834C21.5301 19.9667 21.75 19.2417 21.75 18.5C21.75 17.5054 21.3549 16.5516 20.6517 15.8483C19.9484 15.1451 18.9946 14.75 18 14.75ZM18 21C17.5055 21 17.0222 20.8534 16.6111 20.5787C16.2 20.304 15.8795 19.9135 15.6903 19.4567C15.5011 18.9999 15.4516 18.4972 15.548 18.0123C15.6445 17.5273 15.8826 17.0819 16.2322 16.7322C16.5819 16.3826 17.0273 16.1445 17.5123 16.048C17.9972 15.9516 18.4999 16.0011 18.9567 16.1903C19.4135 16.3795 19.804 16.7 20.0787 17.1111C20.3534 17.5222 20.5 18.0055 20.5 18.5C20.5 19.163 20.2366 19.7989 19.7678 20.2678C19.2989 20.7366 18.663 21 18 21Z" fill="#525252"/>
</g>
<defs>
<clipPath id="clip0_76_1903">
<rect width="20" height="20" fill="white" transform="translate(8 8.5)"/>
</clipPath>
</defs>
</svg>
