<svg width="20" height="21" viewBox="0 0 20 21" fill="none" xmlns="http://www.w3.org/2000/svg">
<path d="M9.21875 17.375C9.21875 17.4993 9.16936 17.6185 9.08146 17.7065C8.99355 17.7944 8.87432 17.8438 8.75 17.8438H3.75C3.62568 17.8438 3.50645 17.7944 3.41854 17.7065C3.33064 17.6185 3.28125 17.4993 3.28125 17.375V3.625C3.28125 3.50068 3.33064 3.38145 3.41854 3.29354C3.50645 3.20564 3.62568 3.15625 3.75 3.15625H8.75C8.87432 3.15625 8.99355 3.20564 9.08146 3.29354C9.16936 3.38145 9.21875 3.50068 9.21875 3.625C9.21875 3.74932 9.16936 3.86855 9.08146 3.95646C8.99355 4.04436 8.87432 4.09375 8.75 4.09375H4.21875V16.9062H8.75C8.87432 16.9062 8.99355 16.9556 9.08146 17.0435C9.16936 17.1315 9.21875 17.2507 9.21875 17.375ZM17.8313 10.1688L14.7063 7.04375C14.6174 6.96095 14.4999 6.91587 14.3784 6.91802C14.257 6.92016 14.1411 6.96935 14.0552 7.05524C13.9694 7.14112 13.9202 7.25699 13.918 7.37842C13.9159 7.49986 13.9609 7.61739 14.0437 7.70625L16.368 10.0312H8.75C8.62568 10.0312 8.50645 10.0806 8.41854 10.1685C8.33064 10.2565 8.28125 10.3757 8.28125 10.5C8.28125 10.6243 8.33064 10.7435 8.41854 10.8315C8.50645 10.9194 8.62568 10.9688 8.75 10.9688H16.368L14.0437 13.2937C13.9977 13.3367 13.9608 13.3884 13.9351 13.4459C13.9095 13.5034 13.8957 13.5655 13.8946 13.6284C13.8935 13.6914 13.9051 13.7539 13.9287 13.8122C13.9522 13.8706 13.9873 13.9236 14.0319 13.9681C14.0764 14.0127 14.1294 14.0478 14.1878 14.0713C14.2461 14.0949 14.3086 14.1065 14.3716 14.1054C14.4345 14.1043 14.4966 14.0905 14.5541 14.0649C14.6116 14.0392 14.6633 14.0023 14.7063 13.9563L17.8313 10.8313C17.919 10.7434 17.9683 10.6242 17.9683 10.5C17.9683 10.3758 17.919 10.2566 17.8313 10.1688Z" fill="#434343"/>
</svg>
